<?xml version="1.0" standalone="no"?><!DOCTYPE svg PUBLIC "-//W3C//DTD SVG 1.1//EN" "http://www.w3.org/Graphics/SVG/1.1/DTD/svg11.dtd"><svg t="1554509455522" class="icon" style="" viewBox="0 0 1024 1024" version="1.1" xmlns="http://www.w3.org/2000/svg" p-id="2696" xmlns:xlink="http://www.w3.org/1999/xlink" width="200" height="200"><defs><style type="text/css"></style></defs><path d="M499.11125 575.676182A381.993129 381.993129 0 0 0 447.748142 767.568243c0 98.312699 36.971204 187.926291 97.737023 255.856081H63.96402a63.96402 63.96402 0 0 1-63.96402-63.96402v-159.910051A223.874071 223.874071 0 0 1 223.874071 575.676182h275.237179z m170.336186 358.582298c-7.675682 11.641452-19.189206 19.381098-26.864889 31.022549-7.739646 7.739646-19.317134 11.641452-30.830657 3.837842-3.837841 0-3.837841-3.837841-7.675683-3.837842l-34.668499-34.924355c-7.675682-7.675682-11.513524-15.479293-7.675682-27.120744 0-3.837841 3.837841-7.739646 7.675682-11.641452l26.928853-27.120744v-3.837842c-3.837841-11.641452-11.513524-23.282903-15.351365-34.924355 0-3.837841-3.837841-3.837841-3.837841-3.837841H538.57705A28.975701 28.975701 0 0 1 511.712162 802.36467v-58.143295c0-11.577488 3.837841-19.381098 15.351365-27.120744 3.837841-3.837841 7.675682-3.837841 11.577487-3.837841h42.344182c3.837841 0 3.837841 0 3.837841-3.901806 3.837841-11.641452 7.675682-19.381098 11.513524-31.022549 0-3.837841 3.837841-3.837841 3.837841-7.739647l-26.864889-27.120744c-11.577488-11.641452-11.577488-27.184709 0-38.762197l34.540571-34.924355c11.577488-11.641452 26.992817-11.641452 38.506341 0l26.928852 27.120745h3.837841c11.513524-3.837841 23.091011-11.577488 34.668499-15.479293 3.837841 0 3.837841-3.837841 3.837841-3.837841v-38.826161c0-11.641452 7.675682-23.218939 19.189207-27.120744h57.75951c11.513524 0 19.189206 3.837841 26.928852 15.479293 3.837841 3.901805 3.837841 7.80361 3.837842 11.641451v42.664002c0 3.837841 0 3.837841 3.837841 3.837841 11.513524 3.901805 26.928853 11.641452 38.50634 15.543257v-3.837841l26.864888-27.184709c7.739646-7.739646 19.317134-11.641452 30.830658-3.837841 3.837841 0 3.837841 3.837841 7.675683 3.837841l34.668499 34.924355c7.675682 7.675682 11.513524 15.479293 7.675682 27.120745 0 3.837841-3.837841 7.739646-7.675682 11.641452l-26.928853 27.120744v3.837841c3.837841 11.641452 11.513524 23.282903 15.351365 34.924355 0 3.837841 3.837841 3.837841 3.837841 3.837842h38.50634c11.513524 0 23.027047 7.80361 26.928853 19.445062v58.143294c0 11.577488-3.837841 19.381098-15.351365 27.120745-3.837841 3.837841-7.675682 3.837841-11.577488 3.837841h-38.50634c-3.837841 0-3.837841 0-3.837841 3.901805-3.837841 11.641452-7.675682 19.381098-11.513524 31.02255 0 3.837841-3.837841 3.837841-3.837841 7.739647h3.837841l26.864889 27.120744c11.577488 11.641452 11.577488 27.184709 3.901805 34.924355-11.513524 11.641452-23.027047 27.120745-38.442376 38.762196-11.513524 11.641452-23.091011 7.739646-34.668499 0l-26.864889-27.120744h-3.901805c-11.513524 3.837841-23.027047 11.577488-34.604535 15.479293-3.837841 0-3.837841 3.837841-3.837841 3.837841v38.82616c0 11.641452-7.675682 23.218939-19.25317 27.120745h-57.75951c-11.513524 0-19.189206-3.837841-26.864889-15.479293-3.837841-3.901805-3.837841-7.80361-3.837841-11.641452v-38.762196c0-3.837841 0-3.837841-3.837841-3.837841-11.577488-3.965769-19.317134-7.80361-30.830658-11.705416-11.513524-3.837841-15.351365-3.837841-19.189206-7.675682zM831.532263 767.568243c0-34.092823-27.696421-63.96402-63.96402-63.96402-34.092823 0-63.96402 27.696421-63.96402 63.96402 0 34.092823 27.696421 63.96402 63.96402 63.96402s63.96402-27.696421 63.96402-63.96402zM511.712162 511.712162a255.856081 255.856081 0 1 1 0-511.712162 255.856081 255.856081 0 0 1 0 511.712162z" p-id="2697"></path></svg>